<?xml version="1.0" standalone="no"?>
<!DOCTYPE svg PUBLIC "-//W3C//DTD SVG 20010904//EN"
 "http://www.w3.org/TR/2001/REC-SVG-20010904/DTD/svg10.dtd">
<svg version="1.0" xmlns="http://www.w3.org/2000/svg"
 width="526.000000pt" height="282.000000pt" viewBox="0 0 526.000000 282.000000"
 preserveAspectRatio="xMidYMid meet">
<metadata>
Created by potrace 1.15, written by Peter Selinger 2001-2017
</metadata>
<g transform="translate(0.000000,282.000000) scale(0.100000,-0.100000)"
fill="#ffffff" stroke="none">
<path d="M3158 2687 c-466 -449 -456 -440 -468 -417 -10 19 -8 26 14 49 31 32
32 42 8 64 -26 23 -45 21 -72 -8 -29 -30 -36 -31 -51 -4 -8 15 -8 24 0 32 6 6
11 18 11 27 0 20 -41 60 -61 60 -16 0 -139 -120 -139 -136 0 -12 52 -64 65
-64 5 0 16 7 25 15 15 14 19 13 35 -5 18 -20 17 -21 -36 -79 -30 -32 -58 -59
-64 -60 -5 0 -44 -35 -86 -77 l-76 -76 -43 27 c-38 24 -46 26 -64 15 -50 -31
-217 -110 -286 -135 -73 -26 -295 -85 -315 -84 -5 0 14 9 43 20 50 20 53 22
47 49 -8 38 20 146 50 192 63 95 55 208 -19 283 -52 52 -100 69 -177 63 -73
-5 -133 -44 -169 -108 -33 -61 -34 -148 -2 -205 53 -95 65 -130 66 -190 0 -33
-5 -76 -12 -96 -11 -30 -19 -38 -46 -43 -62 -12 -116 -73 -116 -131 l0 -25
178 -1 177 -1 -150 -24 c-155 -24 -521 -96 -588 -115 -29 -8 -37 -14 -33 -27
13 -44 118 -492 141 -607 15 -71 29 -132 31 -134 2 -2 25 3 51 12 152 49 625
123 1018 159 189 18 981 18 1170 0 393 -36 866 -110 1018 -159 26 -9 49 -14
51 -12 2 2 16 63 31 134 23 115 128 563 141 607 4 13 -4 19 -33 27 -70 19
-437 91 -588 115 l-150 24 142 1 142 1 15 28 c34 66 56 165 56 251 0 187 -52
296 -290 604 -56 73 -60 82 -60 131 0 36 8 68 25 101 13 27 22 51 19 55 -3 3
-69 5 -147 5 -130 0 -147 -2 -204 -26 -42 -18 -60 -22 -56 -12 5 13 -13 43
-26 43 -3 -1 -68 -60 -143 -133z m117 -133 c210 -212 330 -445 285 -554 -16
-39 -77 -93 -141 -126 -65 -32 -60 -36 87 -63 106 -20 107 -20 34 -15 -110 8
-319 52 -356 74 -17 11 -44 20 -59 20 -30 0 -187 64 -275 112 l-55 30 3 100
c2 61 -1 103 -7 107 -10 7 382 391 399 391 6 0 44 -34 85 -76z m326 -114 c131
-173 180 -346 129 -457 -25 -56 -32 -55 -14 4 18 59 18 95 -1 167 -28 107
-119 265 -236 408 l-52 63 62 -60 c34 -33 85 -89 112 -125z m-974 -241 c18
-18 -203 -228 -239 -229 -16 0 -28 4 -28 9 0 13 228 231 243 231 7 0 18 -5 24
-11z m138 -690 c3 -4 0 -18 -6 -33 -9 -19 -17 -25 -28 -20 -9 3 -37 9 -63 11
l-48 6 0 -67 0 -66 70 0 69 0 -17 -30 c-18 -32 -18 -32 -99 -13 -22 5 -23 3
-23 -66 l0 -71 33 0 c18 0 56 6 85 14 56 14 62 10 38 -34 -14 -24 -18 -25
-118 -25 l-104 0 4 140 c2 77 0 165 -6 195 -7 40 -7 57 1 63 14 9 202 5 212
-4z m-366 -5 c17 -4 42 -18 56 -32 20 -20 25 -34 25 -77 0 -74 -24 -101 -100
-117 -60 -12 -60 -12 -60 -48 0 -19 5 -53 10 -75 5 -22 8 -40 7 -42 -2 -1 -21
-5 -42 -8 l-40 -7 -2 143 c-1 79 -7 167 -13 196 -6 29 -9 57 -5 63 7 11 114
14 164 4z m624 -149 l104 -156 6 53 c4 29 7 97 7 151 l0 98 38 -7 c20 -4 39
-8 40 -10 2 -1 -1 -26 -7 -56 -15 -73 -30 -266 -24 -305 4 -28 2 -33 -13 -32
-49 3 -65 19 -150 147 -54 82 -91 129 -96 124 -6 -6 -8 -64 -6 -131 l3 -121
-39 0 -39 0 6 38 c4 20 9 98 13 172 6 129 6 136 -15 154 -31 28 -26 36 24 36
l45 0 103 -155z m-959 111 c80 -33 89 -123 19 -181 l-25 -21 79 -82 80 -82
-42 0 c-38 0 -49 7 -122 75 l-81 75 5 -43 c3 -23 12 -61 18 -84 13 -41 12 -43
-8 -43 -12 0 -32 -3 -44 -6 -22 -6 -23 -3 -23 42 0 62 -26 268 -40 314 -5 19
-10 36 -10 37 0 4 57 10 108 12 29 0 68 -5 86 -13z m1454 -8 c84 -11 93 -19
68 -53 -13 -17 -15 -18 -55 -2 -23 10 -47 17 -55 17 -9 0 -17 -39 -29 -137
-10 -76 -17 -155 -17 -175 0 -38 0 -38 -41 -38 -40 0 -41 1 -36 28 4 15 13 81
22 147 8 66 18 135 21 154 l5 33 -69 -4 -69 -4 10 30 10 29 76 -7 c42 -3 113
-11 159 -18z m259 -44 c117 -32 142 -159 40 -204 l-38 -17 40 -76 c22 -42 48
-89 58 -103 l17 -26 -35 7 c-41 8 -58 26 -118 129 -44 77 -46 79 -52 50 -4
-16 -7 -55 -8 -87 l-1 -59 -42 7 c-52 9 -52 9 -39 33 15 28 51 255 51 320 l0
53 38 -6 c20 -4 60 -13 89 -21z m-2151 -11 c12 -16 58 -82 103 -148 46 -66 97
-134 114 -152 33 -35 31 -38 -31 -46 -31 -3 -35 0 -57 42 -40 77 -33 73 -114
60 -78 -13 -74 -9 -89 -99 -7 -41 -10 -45 -46 -52 -22 -5 -41 -7 -43 -5 -2 2
3 19 11 38 8 19 37 114 66 212 29 97 56 177 59 177 4 0 16 -12 27 -27z m2382
-28 c20 -4 32 -13 32 -22 0 -9 9 -47 21 -86 l21 -69 34 33 c20 19 45 49 56 67
19 31 24 33 57 27 54 -10 55 -14 11 -50 -90 -75 -142 -143 -156 -203 -8 -31
-14 -72 -14 -90 0 -27 -3 -32 -17 -29 -10 3 -30 8 -44 11 l-26 6 23 67 c13 38
24 80 24 94 0 36 -37 153 -67 212 -22 44 -22 48 -6 44 10 -3 33 -8 51 -12z
m-2654 -17 c11 -43 8 -45 -48 -40 -67 5 -118 -11 -149 -48 -52 -61 -42 -157
23 -222 34 -34 43 -38 88 -38 40 0 60 7 100 34 l50 33 5 -26 c7 -35 3 -39 -57
-67 -157 -73 -306 15 -306 181 0 126 99 208 256 214 25 1 33 -4 38 -21z"/>
<path d="M1949 2785 c-58 -19 -136 -87 -160 -140 -25 -53 -24 -147 0 -200 23
-49 64 -89 113 -109 160 -67 317 108 211 234 -32 39 -40 33 -14 -11 80 -131
-105 -255 -215 -145 -105 105 -44 264 116 307 104 27 231 -50 264 -162 19 -62
20 -100 5 -168 -22 -102 -141 -259 -254 -333 -80 -52 -68 -62 23 -17 98 48
210 162 259 265 33 69 38 90 41 166 4 77 1 94 -23 145 -32 71 -75 117 -140
150 -62 32 -159 40 -226 18z"/>
<path d="M717 1472 c-11 -2 -16 -10 -13 -20 10 -31 97 -396 132 -552 19 -85
37 -165 39 -177 3 -13 1 -23 -5 -23 -5 0 -10 10 -10 22 0 42 -161 722 -174
735 -3 3 -17 -2 -31 -11 -34 -22 -33 -50 11 -213 19 -74 33 -141 30 -148 -3
-8 -23 -24 -46 -37 -40 -23 -41 -24 -36 -68 3 -25 -10 11 -29 80 -38 132 -55
160 -104 160 -14 0 -36 3 -47 6 -21 6 -21 2 16 -153 20 -87 47 -212 60 -279
l23 -120 46 0 c62 1 110 -20 118 -52 5 -21 -1 -32 -35 -64 -23 -21 -47 -38
-54 -38 -7 0 1 8 17 19 153 94 12 153 -216 90 -149 -41 -229 -101 -229 -172 0
-22 7 -31 33 -42 95 -40 224 -27 487 49 373 107 1160 360 1137 364 -23 5 -362
-34 -517 -59 -186 -29 -383 -59 -397 -59 -7 0 -13 11 -13 24 0 45 -156 725
-168 737 -4 3 -15 4 -25 1z"/>
<path d="M4452 1208 c-81 -343 -102 -442 -102 -473 0 -14 -6 -25 -12 -25 -15
0 -212 30 -398 59 -155 25 -494 64 -517 59 -23 -4 764 -257 1137 -364 263 -76
392 -89 487 -49 26 11 33 20 33 42 0 71 -80 131 -229 172 -228 63 -369 4 -216
-90 17 -11 24 -19 17 -19 -7 0 -31 17 -54 38 -34 32 -40 43 -35 64 8 32 56 53
118 52 l46 0 23 120 c13 67 40 192 60 279 37 155 37 159 16 153 -11 -3 -33 -6
-47 -6 -49 0 -66 -28 -104 -160 -19 -69 -32 -105 -29 -80 5 45 5 45 -44 73
l-48 29 38 141 c47 177 48 201 8 222 l-29 15 -10 -37 c-59 -225 -161 -669
-161 -702 0 -12 -5 -21 -10 -21 -6 0 -8 10 -5 23 2 12 20 92 39 177 36 158
122 521 132 553 4 13 0 17 -19 17 -23 0 -26 -9 -85 -262z"/>
<path d="M270 1206 c0 -2 18 -77 39 -167 22 -90 50 -216 62 -279 12 -63 23
-116 23 -117 1 -1 12 0 25 4 28 7 27 14 -34 285 -63 284 -61 278 -90 278 -14
0 -25 -2 -25 -4z"/>
<path d="M4930 1173 c-15 -55 -98 -430 -106 -479 -5 -37 -4 -42 17 -47 13 -3
24 -5 25 -4 0 1 11 54 23 117 12 63 40 189 62 279 21 90 39 165 39 167 0 2
-11 4 -25 4 -19 0 -26 -7 -35 -37z"/>
<path d="M135 1156 c-38 -19 -85 -49 -103 -67 -42 -41 -43 -37 36 -329 86
-317 77 -289 86 -262 4 12 11 22 14 22 4 0 31 18 60 39 29 22 68 46 88 53 32
11 34 15 28 43 -15 76 -96 435 -107 479 -7 27 -17 51 -22 53 -6 1 -41 -13 -80
-31z"/>
<path d="M5035 1178 c-16 -43 -128 -549 -123 -553 2 -1 18 -8 37 -15 18 -7 57
-31 85 -52 28 -21 54 -38 58 -38 3 0 10 -10 14 -22 9 -27 0 -55 86 262 79 292
78 288 36 329 -28 27 -160 101 -182 101 -4 0 -9 -6 -11 -12z"/>
</g>
</svg>
